{"title":"Drive Angry 2011 TS XViD V1 - IMAGiNE[TDA][no rars]","uid":6223383,"size":747564602,"categoryP":"video","categoryS":"movies","magnet":"?xt=urn:btih:653c3478dfc579c5bec8b24a617eea8757bf3a62&amp;dn=Drive+Angry+2011+TS+XViD+V1+-+IMAGiNE%5BTDA%5D%5Bno+rars%5D&amp;tr=udp%3A%2F%2Ftracker.openbittorrent.com%3A80&amp;tr=udp%3A%2F%2Fopen.demonii.com%3A1337&amp;tr=udp%3A%2F%2Ftracker.coppersurfer.tk%3A6969&amp;tr=udp%3A%2F%2Fexodus.desync.com%3A6969","seeders":0,"leechers":1,"uploader":"DibyaTPB","files":4,"time":1299423396,"description":" *********** ****    ****      ***      ******** *********** ****    *** **********\n          *+*     +*+*+* *+*+*+   *+* *+*   *+*    *+*    *+*     *+*+*   *+* *+*        \n          +*+     +*+ +*+*+ +*+  +*+   +*+  +*+           +*+     *+*+*+  +*+ +*+        \n          +$+     +$+  +*+  +$+ +$++*++$++* *$*           +$+     +$+ +*+ +$+ +$++*++$  \n          +$+     +$+       +$+ +$+     +$+ +$+   +$+$    +$+     +$+  +$+$+$ +$+        \n          $+$     $+$       $+$ $+$     $+$ $+$    $+$    $+$     $+$   $+$+$ $+$        \n      $$$$$$$$$$$ $$$       $$$ $$$     $$$  $$$$$$$$ $$$$$$$$$$$ $$$    $$$$ $$$$$$$$$$    \n                                               \n\n\n\n                          Another Fine Release Brought to you from - IMAGiNE                  \n                                               \n\n********************************************************************************************************************                                \n                             Drive Angry 2011 TS XViD V1 - IMAGiNE\n********************************************************************************************************************\n\nRipper ...........:IMAGiNE                                         IMDB Rating.......:6.4/10                            \nVideo Codec.......:XVID                                            Release Date......:06/03/11\nAudio Codec.......:MP3                                             Theatre Date......:25/02/11\nAudio Bitrate.....:128                                             Runtime...........:1h 32mn\nSubtitles.........:NIL                                             Language..........:ENGLISH\nResolution........:688 x 352                                       IMDb URL..........:http://www.imdb.com/title/tt1502404/\nDETAILS:\n\nVideo\nID                               : 0\nFormat                           : MPEG-4 Visual\nFormat profile                   : Advanced Simple@L5\nFormat settings, BVOP            : Yes\nFormat settings, QPel            : No\nFormat settings, GMC             : No warppoints\nFormat settings, Matrix          : Default (MPEG)\nMuxing mode                      : Packed bitstream\nCodec ID                         : XVID\nCodec ID/Hint                    : XviD\nDuration                         : 1h 32mn\nBit rate                         : 931 Kbps\nWidth                            : 688 pixels\nHeight                           : 352 pixels\nDisplay aspect ratio             : 1.955\nFrame rate                       : 25.000 fps\nColor space                      : YUV\nChroma subsampling               : 4:2:0\nBit depth                        : 8 bits\nScan type                        : Progressive\nCompression mode                 : Lossy\nBits/(Pixel*Frame)               : 0.154\nStream size                      : 616 MiB (87%)\nWriting library                  : XviD 61\n\nAudio\nID                               : 1\nFormat                           : MPEG Audio\nFormat version                   : Version 1\nFormat profile                   : Layer 3\nCodec ID                         : 55\nCodec ID/Hint                    : MP3\nDuration                         : 1h 32mn\nBit rate mode                    : Constant\nBit rate                         : 128 Kbps\nChannel(s)                       : 2 channels\nSampling rate                    : 44.1 KHz\nCompression mode                 : Lossy\nStream size                      : 84.7 MiB (12%)\nAlignment                        : Split accross interleaves\nInterleave, duration             : 40 ms (1.00 video frame)\nInterleave, preload duration     : 500 ms\n\n\n\n\n\n\n\n\nSOURCES:\n\nVIDEO: relizlab ... Thanks\nAUDIO: Thanks matey... Thanks\n\nNOTES:\n\nIMAGiNE bringing you another release.......... Drive Angry 2011....\n\nHere we are with our encode of this movie for you all.. Now for the video we just made a script\ncontaining white balance, rgb eq,resize,crop, sharpness, chroma, brightness, contrast,\ndeinterlace TWICE lol ect.With the audio it was just a case of syncing the audio and muxing to our encode...\nFYI v2 will be coming in a few hrs....better Q but alot more cropped you can take your pick...\n\nEnjoy\n\nSCREENS:\n &lt;a href=&quot;\nhttp://www.grinshare.com/img/6EI4I8.png&quot; rel=&quot;nofollow&quot; target=&quot;_NEW&quot;&gt;\nhttp://www.grinshare.com/img/6EI4I8.png&lt;/a&gt;\n &lt;a href=&quot;\nhttp://www.grinshare.com/img/9L15NA.png&quot; rel=&quot;nofollow&quot; target=&quot;_NEW&quot;&gt;\nhttp://www.grinshare.com/img/9L15NA.png&lt;/a&gt;\n &lt;a href=&quot;\nhttp://www.grinshare.com/img/6JR6Y3.png&quot; rel=&quot;nofollow&quot; target=&quot;_NEW&quot;&gt;\nhttp://www.grinshare.com/img/6JR6Y3.png&lt;/a&gt;","torrent":{"xt":"urn:btih:653c3478dfc579c5bec8b24a617eea8757bf3a62","amp;dn":"Drive+Angry+2011+TS+XViD+V1+-+IMAGiNE%5BTDA%5D%5Bno+rars%5D","amp;tr":["udp%3A%2F%2Ftracker.openbittorrent.com%3A80","udp%3A%2F%2Fopen.demonii.com%3A1337","udp%3A%2F%2Ftracker.coppersurfer.tk%3A6969","udp%3A%2F%2Fexodus.desync.com%3A6969"],"infoHash":"653c3478dfc579c5bec8b24a617eea8757bf3a62","infoHashBuffer":{"type":"Buffer","data":[101,60,52,120,223,197,121,197,190,200,178,74,97,126,234,135,87,191,58,98]},"announce":[],"urlList":[]}}